<svg xmlns="http://www.w3.org/2000/svg" viewBox="0 0 800 600">
  <defs>
    <linearGradient id="bgGradient" x1="0%" y1="0%" x2="100%" y2="100%">
      <stop offset="0%" stop-color="#F0F7FF" />
      <stop offset="100%" stop-color="#E6F0FF" />
    </linearGradient>
  </defs>
  
  <!-- Background -->
  <rect width="800" height="600" fill="url(#bgGradient)" />
  
  <!-- Browser Window -->
  <rect x="100" y="50" width="600" height="450" rx="8" ry="8" fill="#FFFFFF" stroke="#E2E8F0" stroke-width="2" />
  
  <!-- Browser Header -->
  <rect x="100" y="50" width="600" height="40" rx="8" ry="8" fill="#F8FAFC" />
  <circle cx="130" cy="70" r="8" fill="#FDA4AF" />
  <circle cx="160" cy="70" r="8" fill="#FCD34D" />
  <circle cx="190" cy="70" r="8" fill="#86EFAC" />
  <rect x="220" y="62" width="380" height="16" rx="4" ry="4" fill="#E2E8F0" />
  
  <!-- Logo Area -->
  <rect x="130" y="110" width="200" height="40" rx="4" ry="4" fill="#2563EB" />
  <text x="150" y="137" font-family="Arial" font-size="20" font-weight="bold" fill="#FFFFFF">ContractNest</text>
  
  <!-- Navigation -->
  <rect x="400" y="110" width="270" height="40" rx="4" ry="4" fill="#F8FAFC" />
  <circle cx="425" cy="130" r="5" fill="#2563EB" />
  <circle cx="475" cy="130" r="5" fill="#2563EB" />
  <circle cx="525" cy="130" r="5" fill="#2563EB" />
  <circle cx="575" cy="130" r="5" fill="#2563EB" />
  <circle cx="625" cy="130" r="5" fill="#2563EB" />
  
  <!-- Dashboard Area -->
  <rect x="130" y="170" width="540" height="300" rx="4" ry="4" fill="#F8FAFC" />
  
  <!-- Sidebar -->
  <rect x="130" y="170" width="140" height="300" rx="4" ry="4" fill="#F1F5F9" />
  <rect x="145" y="190" width="110" height="12" rx="2" ry="2" fill="#94A3B8" />
  <rect x="145" y="220" width="110" height="12" rx="2" ry="2" fill="#94A3B8" />
  <rect x="145" y="250" width="110" height="12" rx="2" ry="2" fill="#94A3B8" />
  <rect x="145" y="280" width="110" height="12" rx="2" ry="2" fill="#94A3B8" />
  <rect x="145" y="310" width="110" height="12" rx="2" ry="2" fill="#94A3B8" />
  <rect x="145" y="340" width="110" height="12" rx="2" ry="2" fill="#94A3B8" />
  <rect x="145" y="370" width="110" height="12" rx="2" ry="2" fill="#94A3B8" />
  <rect x="145" y="400" width="110" height="12" rx="2" ry="2" fill="#94A3B8" />
  <rect x="145" y="430" width="110" height="12" rx="2" ry="2" fill="#94A3B8" />
  
  <!-- Main Content Area -->
  <rect x="290" y="190" width="360" height="40" rx="4" ry="4" fill="#FFFFFF" stroke="#E2E8F0" stroke-width="1" />
  <text x="310" y="217" font-family="Arial" font-size="16" font-weight="bold" fill="#334155">Contract Management Dashboard</text>
  
  <!-- Stats Cards -->
  <rect x="290" y="250" width="100" height="80" rx="4" ry="4" fill="#FFFFFF" stroke="#E2E8F0" stroke-width="1" />
  <rect x="300" y="260" width="80" height="12" rx="2" ry="2" fill="#E2E8F0" />
  <text x="300" y="295" font-family="Arial" font-size="18" font-weight="bold" fill="#334155">42</text>
  <rect x="300" y="305" width="60" height="8" rx="2" ry="2" fill="#E2E8F0" />
  
  <rect x="410" y="250" width="100" height="80" rx="4" ry="4" fill="#FFFFFF" stroke="#E2E8F0" stroke-width="1" />
  <rect x="420" y="260" width="80" height="12" rx="2" ry="2" fill="#E2E8F0" />
  <text x="420" y="295" font-family="Arial" font-size="18" font-weight="bold" fill="#334155">15</text>
  <rect x="420" y="305" width="60" height="8" rx="2" ry="2" fill="#E2E8F0" />
  
  <rect x="530" y="250" width="100" height="80" rx="4" ry="4" fill="#FFFFFF" stroke="#E2E8F0" stroke-width="1" />
  <rect x="540" y="260" width="80" height="12" rx="2" ry="2" fill="#E2E8F0" />
  <text x="540" y="295" font-family="Arial" font-size="18" font-weight="bold" fill="#334155">86%</text>
  <rect x="540" y="305" width="60" height="8" rx="2" ry="2" fill="#E2E8F0" />
  
  <!-- Contract List -->
  <rect x="290" y="350" width="340" height="120" rx="4" ry="4" fill="#FFFFFF" stroke="#E2E8F0" stroke-width="1" />
  <rect x="300" y="360" width="120" height="12" rx="2" ry="2" fill="#E2E8F0" />
  
  <rect x="300" y="380" width="320" height="1" fill="#E2E8F0" />
  
  <rect x="300" y="390" width="220" height="10" rx="2" ry="2" fill="#E2E8F0" />
  <rect x="540" y="390" width="40" height="10" rx="2" ry="2" fill="#2563EB" />
  
  <rect x="300" y="410" width="220" height="10" rx="2" ry="2" fill="#E2E8F0" />
  <rect x="540" y="410" width="40" height="10" rx="2" ry="2" fill="#2563EB" />
  
  <rect x="300" y="430" width="220" height="10" rx="2" ry="2" fill="#E2E8F0" />
  <rect x="540" y="430" width="40" height="10" rx="2" ry="2" fill="#2563EB" />
  
  <rect x="300" y="450" width="220" height="10" rx="2" ry="2" fill="#E2E8F0" />
  <rect x="540" y="450" width="40" height="10" rx="2" ry="2" fill="#2563EB" />
  
  <!-- Chart -->
  <rect x="650" y="250" width="20" height="50" rx="2" ry="2" fill="#2563EB" opacity="0.2" />
  <rect x="650" y="250" width="20" height="20" rx="2" ry="2" fill="#2563EB" />
  
  <rect x="680" y="250" width="20" height="60" rx="2" ry="2" fill="#2563EB" opacity="0.2" />
  <rect x="680" y="250" width="20" height="35" rx="2" ry="2" fill="#2563EB" />
  
  <rect x="710" y="250" width="20" height="40" rx="2" ry="2" fill="#2563EB" opacity="0.2" />
  <rect x="710" y="250" width="20" height="15" rx="2" ry="2" fill="#2563EB" />
  
  <rect x="650" y="320" width="80" height="12" rx="2" ry="2" fill="#E2E8F0" />
</svg>